<svg width="21" height="21" viewBox="0 0 21 21" fill="none" xmlns="http://www.w3.org/2000/svg">
<path fill-rule="evenodd" clip-rule="evenodd" d="M16.9219 0.880216L17.1875 0.913549C17.8896 1.01042 18.8188 1.14063 19.3448 1.66772C19.7761 2.09792 19.9417 2.79792 20.0406 3.42292L20.099 3.82501C20.2302 4.77292 20.2646 6.01459 20.0406 7.39375C19.599 10.1156 18.15 13.3635 14.5115 15.8781C14.4917 16.074 14.4906 16.2719 14.4948 16.4698L14.5052 16.7656C14.5219 17.2208 14.5386 17.676 14.4115 18.1177C14.2136 18.8052 13.5084 19.2583 12.849 19.5833L12.5261 19.7365L12.1094 19.9198C11.3302 20.251 10.2781 20.5906 9.61877 19.9302C9.22294 19.5354 9.06044 18.9563 8.92815 18.3802L8.87919 18.1646C8.82403 17.8923 8.75449 17.6232 8.67085 17.3583C8.61877 17.2063 8.56252 17.051 8.5021 16.8948C8.43561 16.9764 8.36503 17.0547 8.29065 17.1292C7.93127 17.4885 7.39481 17.7396 6.95315 17.9156C6.47085 18.1063 5.92502 18.2729 5.41981 18.4104L5.16044 18.4792L4.66356 18.6031L4.21356 18.7073L3.67502 18.8219L3.33856 18.8875C3.17076 18.9186 2.99792 18.9084 2.83494 18.8577C2.67197 18.8071 2.52376 18.7176 2.40308 18.5969C2.28241 18.4763 2.19291 18.3281 2.14229 18.1651C2.09167 18.0021 2.08145 17.8293 2.11252 17.6615L2.2021 17.2125L2.36252 16.4854L2.49169 15.9542L2.5896 15.5792C2.7271 15.075 2.89377 14.5292 3.08544 14.0479C3.26044 13.6052 3.51148 13.0688 3.87085 12.7094L3.95419 12.6292L3.88752 12.6021C3.7095 12.5344 3.52918 12.4729 3.34689 12.4177L3.05835 12.3292C2.33544 12.1104 1.56252 11.875 1.08231 11.3938C0.498978 10.8115 0.695853 9.925 0.977103 9.1875L1.09169 8.90209L1.27606 8.48542L1.42919 8.1625C1.75419 7.50417 2.20731 6.79896 2.89481 6.60105C3.25939 6.49688 3.63856 6.49063 4.01981 6.50105L4.24898 6.50834C4.5469 6.51876 4.84377 6.53021 5.1344 6.50209C7.64898 2.86251 10.8969 1.41355 13.6188 0.971882C14.7107 0.792794 15.8217 0.76196 16.9219 0.880216ZM6.70106 14.0833C6.53712 13.962 6.34118 13.8914 6.13752 13.8803C5.93385 13.8692 5.7314 13.918 5.55523 14.0208L5.44065 14.0979L5.34377 14.1844L5.21356 14.349C4.94273 14.7406 4.78856 15.2823 4.66877 15.7885L4.55627 16.276L4.50314 16.4979L4.7021 16.45L5.13752 16.35C5.7396 16.2094 6.40731 16.0271 6.81773 15.6573C6.99618 15.4789 7.10383 15.2419 7.12069 14.9901C7.13755 14.7384 7.06247 14.4891 6.9094 14.2885L6.82398 14.1906L6.79898 14.1667L6.70106 14.0833ZM14.1834 6.81875C13.9899 6.62526 13.7603 6.47176 13.5075 6.36701C13.2548 6.26227 12.9839 6.20833 12.7103 6.20828C12.4367 6.20824 12.1658 6.26208 11.913 6.36673C11.6602 6.47139 11.4305 6.62481 11.237 6.81823C11.0435 7.01166 10.89 7.2413 10.7853 7.49405C10.6805 7.7468 10.6266 8.01771 10.6265 8.2913C10.6265 8.5649 10.6803 8.83582 10.785 9.08861C10.8896 9.34139 11.0431 9.57109 11.2365 9.76459C11.6271 10.1554 12.157 10.375 12.7095 10.3751C13.2621 10.3752 13.7921 10.1558 14.1828 9.76511C14.5736 9.37447 14.7932 8.84459 14.7933 8.29204C14.7934 7.73949 14.574 7.20953 14.1834 6.81875Z" fill="white"/>
</svg>
